<?xml version="1.0" encoding="utf-8" standalone="no"?>
<!DOCTYPE svg PUBLIC "-//W3C//DTD SVG 1.1//EN"
  "http://www.w3.org/Graphics/SVG/1.1/DTD/svg11.dtd">
<svg xmlns:xlink="http://www.w3.org/1999/xlink" width="113.307048pt" height="107.627338pt" viewBox="0 0 113.307048 107.627338" xmlns="http://www.w3.org/2000/svg" version="1.1">
 <metadata>
  <rdf:RDF xmlns:dc="http://purl.org/dc/elements/1.1/" xmlns:cc="http://creativecommons.org/ns#" xmlns:rdf="http://www.w3.org/1999/02/22-rdf-syntax-ns#">
   <cc:Work>
    <dc:type rdf:resource="http://purl.org/dc/dcmitype/StillImage"/>
    <dc:date>2022-12-05T11:30:23.333520</dc:date>
    <dc:format>image/svg+xml</dc:format>
    <dc:creator>
     <cc:Agent>
      <dc:title>Matplotlib v3.6.2, https://matplotlib.org/</dc:title>
     </cc:Agent>
    </dc:creator>
   </cc:Work>
  </rdf:RDF>
 </metadata>
 <defs>
  <style type="text/css">*{stroke-linejoin: round; stroke-linecap: butt}</style>
 </defs>
 <g id="figure_1">
  <g id="patch_1">
   <path d="M 0 107.627338 
L 113.307048 107.627338 
L 113.307048 0 
L 0 0 
z
" style="fill: #ffffff"/>
  </g>
  <g id="axes_1">
   <g id="patch_2">
    <path d="M 11.427048 95.830386 
L 111.867048 95.830386 
L 111.867048 12.670386 
L 11.427048 12.670386 
z
" style="fill: #ffffff"/>
   </g>
   <g id="matplotlib.axis_1">
    <g id="text_1">
     <!-- $x$ -->
     <g transform="translate(59.388154 104.831324) scale(0.07 -0.07)">
      <defs>
       <path id="CMMI12-78" d="M 3034 2606 
C 2829 2567 2752 2414 2752 2293 
C 2752 2139 2874 2088 2963 2088 
C 3155 2088 3290 2254 3290 2427 
C 3290 2695 2982 2816 2714 2816 
C 2323 2816 2106 2433 2048 2312 
C 1901 2816 1504 2816 1389 2816 
C 736 2816 390 1980 390 1839 
C 390 1814 416 1782 461 1782 
C 512 1782 525 1820 538 1846 
C 755 2555 1184 2689 1370 2689 
C 1658 2689 1715 2420 1715 2267 
C 1715 2127 1677 1980 1600 1673 
L 1382 798 
C 1286 415 1101 64 762 64 
C 730 64 570 64 435 147 
C 666 192 717 383 717 460 
C 717 588 621 664 499 664 
C 346 664 179 530 179 326 
C 179 57 480 -64 755 -64 
C 1062 -64 1280 179 1414 441 
C 1517 64 1837 -64 2074 -64 
C 2726 -64 3072 773 3072 913 
C 3072 945 3046 971 3008 971 
C 2950 971 2944 939 2925 888 
C 2752 326 2381 64 2093 64 
C 1869 64 1747 230 1747 492 
C 1747 632 1773 734 1875 1156 
L 2099 2024 
C 2195 2408 2413 2689 2707 2689 
C 2720 2689 2899 2689 3034 2606 
z
" transform="scale(0.015625)"/>
      </defs>
      <use xlink:href="#CMMI12-78" transform="scale(0.996264)"/>
     </g>
    </g>
   </g>
   <g id="matplotlib.axis_2">
    <g id="text_2">
     <!-- $f(x)$ -->
     <g transform="translate(6.670386 61.955911) rotate(-90) scale(0.07 -0.07)">
      <defs>
       <path id="CMMI12-66" d="M 2854 2566 
C 2982 2566 3034 2566 3034 2688 
C 3034 2752 2982 2752 2867 2752 
L 2349 2752 
C 2470 3429 2560 3897 2611 4107 
C 2650 4265 2784 4416 2950 4416 
C 3085 4416 3219 4358 3283 4298 
C 3034 4272 2957 4082 2957 3969 
C 2957 3837 3053 3759 3174 3759 
C 3302 3759 3494 3870 3494 4119 
C 3494 4393 3226 4544 2944 4544 
C 2669 4544 2400 4334 2272 4078 
C 2157 3848 2093 3611 1946 2752 
L 1517 2752 
C 1395 2752 1331 2752 1331 2637 
C 1331 2566 1370 2566 1498 2566 
L 1907 2566 
C 1792 1976 1530 542 1382 -137 
C 1274 -689 1178 -1152 858 -1152 
C 838 -1152 653 -1152 538 -1031 
C 864 -1005 864 -726 864 -720 
C 864 -593 768 -517 646 -517 
C 518 -517 326 -625 326 -867 
C 326 -1140 608 -1280 858 -1280 
C 1510 -1280 1779 -118 1850 199 
C 1965 688 2278 2376 2310 2566 
L 2854 2566 
z
" transform="scale(0.015625)"/>
       <path id="CMR17-28" d="M 1958 -1561 
C 1958 -1555 1958 -1542 1939 -1523 
C 1645 -1224 858 -407 858 1581 
C 858 3569 1632 4379 1946 4697 
C 1946 4704 1958 4717 1958 4736 
C 1958 4755 1939 4768 1914 4768 
C 1843 4768 1299 4296 986 3594 
C 666 2887 576 2199 576 1588 
C 576 1128 621 351 1005 -471 
C 1312 -1135 1837 -1600 1914 -1600 
C 1946 -1600 1958 -1587 1958 -1561 
z
" transform="scale(0.015625)"/>
       <path id="CMR17-29" d="M 1683 1581 
C 1683 2040 1638 2817 1254 3639 
C 947 4303 422 4768 346 4768 
C 326 4768 301 4761 301 4729 
C 301 4717 307 4710 314 4697 
C 621 4378 1402 3568 1402 1584 
C 1402 -407 627 -1217 314 -1537 
C 307 -1549 301 -1556 301 -1568 
C 301 -1600 326 -1600 346 -1600 
C 416 -1600 960 -1128 1274 -426 
C 1594 281 1683 969 1683 1581 
z
" transform="scale(0.015625)"/>
      </defs>
      <use xlink:href="#CMMI12-66" transform="scale(0.996264)"/>
      <use xlink:href="#CMR17-28" transform="translate(58.720305 0) scale(0.996264)"/>
      <use xlink:href="#CMMI12-78" transform="translate(94.001073 0) scale(0.996264)"/>
      <use xlink:href="#CMR17-29" transform="translate(149.435132 0) scale(0.996264)"/>
     </g>
    </g>
   </g>
   <g id="line2d_1">
    <path d="M -1 57.114721 
L 4.527453 57.980696 
L 9.428805 58.965276 
L 13.827453 60.068266 
L 17.849075 61.301094 
L 21.49367 62.642582 
L 24.886913 64.120036 
L 28.154481 65.788093 
L 30.416643 67.105332 
L 32.427453 79.565473 
L 32.678805 69.890826 
L 33.055832 46.169731 
L 34.438264 80.128259 
L 34.689616 76.563902 
L 36.197724 51.362429 
L 38.962589 43.568412 
L 39.21394 48.488535 
L 39.716643 59.115653 
L 40.973399 74.490579 
L 43.235562 75.371234 
L 44.995021 76.226384 
L 45.874751 82.032631 
L 46.377453 78.174171 
L 47.508535 78.767789 
L 47.885562 53.890661 
L 49.770697 78.612903 
L 49.896372 74.256027 
L 50.147724 54.694715 
L 50.524751 35.560642 
L 50.650426 38.310487 
L 50.901778 75.405517 
L 51.027453 70.393436 
L 51.530156 36.693038 
L 53.540967 36.074568 
L 53.792318 83.724935 
L 53.917994 81.072399 
L 54.295021 32.891257 
L 54.546372 33.944598 
L 54.672048 30.740339 
L 56.305832 56.343561 
L 56.557183 67.897579 
L 56.682859 51.4882 
L 56.93421 64.881338 
L 57.562589 81.55214 
L 57.688264 75.849396 
L 57.81394 47.601535 
L 58.190967 38.020404 
L 58.442318 73.697828 
L 58.567994 37.305591 
L 59.070697 61.729562 
L 59.196372 61.463739 
L 59.824751 53.903322 
L 60.076102 35.391236 
L 60.704481 53.929744 
L 60.830156 53.216511 
L 60.955832 46.143639 
L 61.458535 73.323064 
L 61.58421 60.869017 
L 61.709886 30.191477 
L 62.966643 40.063212 
L 63.092318 49.557065 
L 63.217994 70.935565 
L 63.34367 67.083832 
L 63.595021 53.143636 
L 63.720697 70.439548 
L 64.474751 42.297643 
L 64.851778 62.537783 
L 65.103129 47.09558 
L 65.228805 36.50023 
L 65.605832 73.444029 
L 65.857183 82.239823 
L 66.108535 59.981725 
L 66.23421 42.413511 
L 66.359886 54.602341 
L 67.365291 36.112386 
L 67.616643 75.190528 
L 67.99367 71.274328 
L 68.370697 34.594408 
L 68.496372 35.365724 
L 69.878805 71.8568 
L 70.004481 67.595992 
L 70.632859 25.704225 
L 70.758535 81.840816 
L 71.386913 57.934137 
L 72.015291 57.180658 
L 72.140967 53.484186 
L 73.649075 53.756321 
L 73.774751 52.831455 
L 74.026102 40.367969 
L 75.031508 73.188622 
L 75.157183 70.258622 
L 76.036913 83.09603 
L 76.162589 82.294195 
L 76.790967 38.880089 
L 76.916643 38.704879 
L 77.29367 37.229103 
L 77.796372 35.040012 
L 77.922048 33.262803 
L 78.047724 29.616171 
L 78.173399 45.807951 
L 78.299075 46.805611 
L 79.304481 38.670501 
L 80.058535 42.223176 
L 80.812589 48.996234 
L 81.189616 66.169107 
L 82.195021 51.77436 
L 84.080156 40.860868 
L 86.090967 28.078583 
L 86.216643 28.585969 
L 88.101778 50.662408 
L 90.740967 79.476168 
L 94.636913 67.450305 
L 96.647724 61.538445 
L 96.773399 60.373785 
L 97.778805 39.389608 
L 97.904481 39.195941 
L 100.795021 41.13829 
L 103.811237 42.898419 
L 107.078805 44.539623 
L 110.472048 45.993292 
L 114.116643 47.313184 
L 114.307048 47.375991 
L 114.307048 47.375991 
" clip-path="url(#p053ab79c4f)" style="fill: none; stroke: #d62728; stroke-linecap: square"/>
   </g>
   <g id="patch_3">
    <path d="M 11.427048 95.830386 
L 11.427048 12.670386 
" style="fill: none; stroke: #000000; stroke-width: 0.5; stroke-linejoin: miter; stroke-linecap: square"/>
   </g>
   <g id="patch_4">
    <path d="M 111.867048 95.830386 
L 111.867048 12.670386 
" style="fill: none; stroke: #000000; stroke-width: 0.5; stroke-linejoin: miter; stroke-linecap: square"/>
   </g>
   <g id="patch_5">
    <path d="M 11.427048 95.830386 
L 111.867048 95.830386 
" style="fill: none; stroke: #000000; stroke-width: 0.5; stroke-linejoin: miter; stroke-linecap: square"/>
   </g>
   <g id="patch_6">
    <path d="M 11.427048 12.670386 
L 111.867048 12.670386 
" style="fill: none; stroke: #000000; stroke-width: 0.5; stroke-linejoin: miter; stroke-linecap: square"/>
   </g>
   <g id="text_3">
    <!-- $\Vert f \Vert_\mathcal{H} = \;$88.2 -->
    <g transform="translate(39.597296 6.670386) scale(0.07 -0.07)">
     <defs>
      <path id="CMSY10-6b" d="M 1103 4582 
C 1103 4685 1103 4800 975 4800 
C 847 4800 847 4659 847 4563 
L 847 -1363 
C 847 -1466 847 -1600 975 -1600 
C 1103 -1600 1103 -1485 1103 -1382 
L 1103 4582 
z
M 2351 4563 
C 2351 4666 2351 4800 2223 4800 
C 2095 4800 2095 4685 2095 4582 
L 2095 -1382 
C 2095 -1485 2095 -1600 2223 -1600 
C 2351 -1600 2351 -1459 2351 -1363 
L 2351 4563 
z
" transform="scale(0.015625)"/>
      <path id="CMSY10-48" d="M 2118 2138 
C 2202 2437 2285 2761 2349 3067 
C 2426 3493 2470 3920 2470 3996 
C 2470 4352 2118 4352 2042 4352 
C 1555 4352 1120 4174 819 3971 
C 301 3621 134 3195 134 3164 
C 134 3120 179 3120 198 3120 
C 250 3120 550 3195 685 3437 
C 858 3759 1043 4000 1619 4000 
C 1882 4000 1926 3822 1926 3721 
C 1926 3714 1907 3415 1830 2977 
C 1798 2799 1779 2684 1645 2138 
L 1414 2138 
C 1235 2138 941 1933 941 1837 
C 941 1798 947 1792 1088 1792 
L 1549 1792 
C 1414 1343 1235 727 941 -56 
C 883 -204 883 -217 883 -224 
C 883 -268 934 -268 947 -268 
C 1037 -268 1235 -185 1363 -56 
C 1395 -18 1408 -5 1434 59 
C 1658 624 1850 1201 2016 1792 
L 3456 1792 
C 3526 1792 3648 1792 3750 1856 
C 3680 1586 3418 540 3418 33 
C 3418 -153 3526 -320 3802 -320 
C 4653 -320 5126 213 5126 418 
C 5126 456 5094 469 5062 469 
C 5011 469 4672 377 4576 123 
C 4550 71 4544 65 4422 45 
C 4352 32 4230 32 4224 32 
C 4109 32 3962 109 3962 307 
C 3962 383 4006 734 4026 874 
C 4134 1583 4448 2783 4998 4237 
C 5018 4282 5018 4295 5018 4307 
C 5018 4352 4979 4352 4954 4352 
C 4858 4352 4672 4264 4550 4155 
C 4544 4142 4506 4110 4480 4053 
C 4224 3429 4026 2787 3834 2138 
L 2118 2138 
z
" transform="scale(0.015625)"/>
      <path id="CMR17-3d" d="M 4115 2017 
C 4211 2017 4307 2017 4307 2125 
C 4307 2240 4198 2240 4090 2240 
L 512 2240 
C 403 2240 294 2240 294 2125 
C 294 2017 390 2017 486 2017 
L 4115 2017 
z
M 4090 896 
C 4198 896 4307 896 4307 1011 
C 4307 1119 4211 1119 4115 1119 
L 486 1119 
C 390 1119 294 1119 294 1011 
C 294 896 403 896 512 896 
L 4090 896 
z
" transform="scale(0.015625)"/>
      <path id="CMR17-38" d="M 1741 2264 
C 2144 2467 2554 2773 2554 3263 
C 2554 3841 1990 4179 1472 4179 
C 890 4179 378 3759 378 3180 
C 378 3021 416 2747 666 2505 
C 730 2442 998 2251 1171 2130 
C 883 1983 211 1634 211 934 
C 211 279 838 -128 1459 -128 
C 2144 -128 2720 362 2720 1010 
C 2720 1590 2330 1857 2074 2029 
L 1741 2264 
z
M 902 2822 
C 851 2854 595 3051 595 3351 
C 595 3739 998 4032 1459 4032 
C 1965 4032 2336 3676 2336 3262 
C 2336 2669 1670 2331 1638 2331 
C 1632 2331 1626 2331 1574 2370 
L 902 2822 
z
M 2080 1519 
C 2176 1449 2483 1240 2483 851 
C 2483 381 2010 25 1472 25 
C 890 25 448 438 448 940 
C 448 1443 838 1862 1280 2060 
L 2080 1519 
z
" transform="scale(0.015625)"/>
      <path id="CMR17-2e" d="M 1062 261 
C 1062 420 934 522 800 522 
C 672 522 538 420 538 261 
C 538 102 666 0 800 0 
C 928 0 1062 102 1062 261 
z
" transform="scale(0.015625)"/>
      <path id="CMR17-32" d="M 2669 989 
L 2554 989 
C 2490 536 2438 459 2413 420 
C 2381 369 1920 369 1830 369 
L 602 369 
C 832 619 1280 1072 1824 1597 
C 2214 1967 2669 2402 2669 3035 
C 2669 3790 2067 4224 1395 4224 
C 691 4224 262 3604 262 3030 
C 262 2780 448 2748 525 2748 
C 589 2748 781 2787 781 3010 
C 781 3207 614 3264 525 3264 
C 486 3264 448 3258 422 3245 
C 544 3790 915 4058 1306 4058 
C 1862 4058 2227 3617 2227 3035 
C 2227 2479 1901 2000 1536 1584 
L 262 146 
L 262 0 
L 2515 0 
L 2669 989 
z
" transform="scale(0.015625)"/>
     </defs>
     <use xlink:href="#CMSY10-6b" transform="scale(0.996264)"/>
     <use xlink:href="#CMMI12-66" transform="translate(49.813383 0) scale(0.996264)"/>
     <use xlink:href="#CMSY10-6b" transform="translate(108.533688 0) scale(0.996264)"/>
     <use xlink:href="#CMSY10-48" transform="translate(158.347071 -14.943915) scale(0.697382)"/>
     <use xlink:href="#CMR17-3d" transform="translate(246.087563 0) scale(0.996264)"/>
     <use xlink:href="#CMR17-38" transform="translate(345.47636 0) scale(0.996264)"/>
     <use xlink:href="#CMR17-38" transform="translate(391.166837 0) scale(0.996264)"/>
     <use xlink:href="#CMR17-2e" transform="translate(436.857314 0) scale(0.996264)"/>
     <use xlink:href="#CMR17-32" transform="translate(461.728373 0) scale(0.996264)"/>
    </g>
   </g>
  </g>
 </g>
 <defs>
  <clipPath id="p053ab79c4f">
   <rect x="11.427048" y="12.670386" width="100.44" height="83.16"/>
  </clipPath>
 </defs>
</svg>
