<?xml version="1.0" encoding="utf-8" standalone="no"?>
<!DOCTYPE svg PUBLIC "-//W3C//DTD SVG 1.1//EN"
  "http://www.w3.org/Graphics/SVG/1.1/DTD/svg11.dtd">
<svg xmlns:xlink="http://www.w3.org/1999/xlink" width="113.307048pt" height="107.627338pt" viewBox="0 0 113.307048 107.627338" xmlns="http://www.w3.org/2000/svg" version="1.1">
 <metadata>
  <rdf:RDF xmlns:dc="http://purl.org/dc/elements/1.1/" xmlns:cc="http://creativecommons.org/ns#" xmlns:rdf="http://www.w3.org/1999/02/22-rdf-syntax-ns#">
   <cc:Work>
    <dc:type rdf:resource="http://purl.org/dc/dcmitype/StillImage"/>
    <dc:date>2022-12-05T11:03:56.324779</dc:date>
    <dc:format>image/svg+xml</dc:format>
    <dc:creator>
     <cc:Agent>
      <dc:title>Matplotlib v3.6.2, https://matplotlib.org/</dc:title>
     </cc:Agent>
    </dc:creator>
   </cc:Work>
  </rdf:RDF>
 </metadata>
 <defs>
  <style type="text/css">*{stroke-linejoin: round; stroke-linecap: butt}</style>
 </defs>
 <g id="figure_1">
  <g id="patch_1">
   <path d="M 0 107.627338 
L 113.307048 107.627338 
L 113.307048 0 
L 0 0 
z
" style="fill: #ffffff"/>
  </g>
  <g id="axes_1">
   <g id="patch_2">
    <path d="M 11.427048 95.830386 
L 111.867048 95.830386 
L 111.867048 12.670386 
L 11.427048 12.670386 
z
" style="fill: #ffffff"/>
   </g>
   <g id="matplotlib.axis_1">
    <g id="text_1">
     <!-- $x$ -->
     <g transform="translate(59.388154 104.831324) scale(0.07 -0.07)">
      <defs>
       <path id="CMMI12-78" d="M 3034 2606 
C 2829 2567 2752 2414 2752 2293 
C 2752 2139 2874 2088 2963 2088 
C 3155 2088 3290 2254 3290 2427 
C 3290 2695 2982 2816 2714 2816 
C 2323 2816 2106 2433 2048 2312 
C 1901 2816 1504 2816 1389 2816 
C 736 2816 390 1980 390 1839 
C 390 1814 416 1782 461 1782 
C 512 1782 525 1820 538 1846 
C 755 2555 1184 2689 1370 2689 
C 1658 2689 1715 2420 1715 2267 
C 1715 2127 1677 1980 1600 1673 
L 1382 798 
C 1286 415 1101 64 762 64 
C 730 64 570 64 435 147 
C 666 192 717 383 717 460 
C 717 588 621 664 499 664 
C 346 664 179 530 179 326 
C 179 57 480 -64 755 -64 
C 1062 -64 1280 179 1414 441 
C 1517 64 1837 -64 2074 -64 
C 2726 -64 3072 773 3072 913 
C 3072 945 3046 971 3008 971 
C 2950 971 2944 939 2925 888 
C 2752 326 2381 64 2093 64 
C 1869 64 1747 230 1747 492 
C 1747 632 1773 734 1875 1156 
L 2099 2024 
C 2195 2408 2413 2689 2707 2689 
C 2720 2689 2899 2689 3034 2606 
z
" transform="scale(0.015625)"/>
      </defs>
      <use xlink:href="#CMMI12-78" transform="scale(0.996264)"/>
     </g>
    </g>
   </g>
   <g id="matplotlib.axis_2">
    <g id="text_2">
     <!-- $f(x)$ -->
     <g transform="translate(6.670386 61.955911) rotate(-90) scale(0.07 -0.07)">
      <defs>
       <path id="CMMI12-66" d="M 2854 2566 
C 2982 2566 3034 2566 3034 2688 
C 3034 2752 2982 2752 2867 2752 
L 2349 2752 
C 2470 3429 2560 3897 2611 4107 
C 2650 4265 2784 4416 2950 4416 
C 3085 4416 3219 4358 3283 4298 
C 3034 4272 2957 4082 2957 3969 
C 2957 3837 3053 3759 3174 3759 
C 3302 3759 3494 3870 3494 4119 
C 3494 4393 3226 4544 2944 4544 
C 2669 4544 2400 4334 2272 4078 
C 2157 3848 2093 3611 1946 2752 
L 1517 2752 
C 1395 2752 1331 2752 1331 2637 
C 1331 2566 1370 2566 1498 2566 
L 1907 2566 
C 1792 1976 1530 542 1382 -137 
C 1274 -689 1178 -1152 858 -1152 
C 838 -1152 653 -1152 538 -1031 
C 864 -1005 864 -726 864 -720 
C 864 -593 768 -517 646 -517 
C 518 -517 326 -625 326 -867 
C 326 -1140 608 -1280 858 -1280 
C 1510 -1280 1779 -118 1850 199 
C 1965 688 2278 2376 2310 2566 
L 2854 2566 
z
" transform="scale(0.015625)"/>
       <path id="CMR17-28" d="M 1958 -1561 
C 1958 -1555 1958 -1542 1939 -1523 
C 1645 -1224 858 -407 858 1581 
C 858 3569 1632 4379 1946 4697 
C 1946 4704 1958 4717 1958 4736 
C 1958 4755 1939 4768 1914 4768 
C 1843 4768 1299 4296 986 3594 
C 666 2887 576 2199 576 1588 
C 576 1128 621 351 1005 -471 
C 1312 -1135 1837 -1600 1914 -1600 
C 1946 -1600 1958 -1587 1958 -1561 
z
" transform="scale(0.015625)"/>
       <path id="CMR17-29" d="M 1683 1581 
C 1683 2040 1638 2817 1254 3639 
C 947 4303 422 4768 346 4768 
C 326 4768 301 4761 301 4729 
C 301 4717 307 4710 314 4697 
C 621 4378 1402 3568 1402 1584 
C 1402 -407 627 -1217 314 -1537 
C 307 -1549 301 -1556 301 -1568 
C 301 -1600 326 -1600 346 -1600 
C 416 -1600 960 -1128 1274 -426 
C 1594 281 1683 969 1683 1581 
z
" transform="scale(0.015625)"/>
      </defs>
      <use xlink:href="#CMMI12-66" transform="scale(0.996264)"/>
      <use xlink:href="#CMR17-28" transform="translate(58.720305 0) scale(0.996264)"/>
      <use xlink:href="#CMMI12-78" transform="translate(94.001073 0) scale(0.996264)"/>
      <use xlink:href="#CMR17-29" transform="translate(149.435132 0) scale(0.996264)"/>
     </g>
    </g>
   </g>
   <g id="line2d_1">
    <path d="M 9.144321 42.918514 
L 12.402748 41.179831 
L 15.556065 39.243635 
L 18.499161 37.178567 
L 21.337146 34.918547 
L 24.070021 32.459907 
L 26.697785 29.801412 
L 29.325549 26.818574 
L 31.848203 23.613219 
L 34.265746 20.190519 
L 36.683289 16.385444 
L 38.890611 12.768453 
L 41.097933 15.628764 
L 43.305254 18.127671 
L 45.512576 20.288559 
L 47.719898 22.131648 
L 49.822109 23.607322 
L 51.924321 24.82293 
L 54.026532 25.788789 
L 56.128743 26.513095 
L 58.230955 27.001997 
L 60.333166 27.259643 
L 62.435377 27.28822 
L 64.537589 27.08797 
L 66.6398 26.657194 
L 68.742011 25.992236 
L 70.844223 25.087453 
L 72.946434 23.935165 
L 75.048645 22.525594 
L 77.150856 20.846776 
L 79.253068 18.884463 
L 81.355279 16.622002 
L 83.45749 14.04019 
L 84.508596 12.732772 
L 86.926139 16.904907 
L 89.448793 20.812106 
L 91.971446 24.310522 
L 94.4941 27.442923 
L 97.121864 30.357871 
L 99.854738 33.053686 
L 102.692724 35.531721 
L 105.63582 37.795997 
L 108.684026 39.852827 
L 111.837343 41.710423 
L 114.149775 42.918514 
L 114.149775 42.918514 
" clip-path="url(#p16cc2ca3f3)" style="fill: none; stroke: #d62728; stroke-linecap: square"/>
   </g>
   <g id="patch_3">
    <path d="M 11.427048 95.830386 
L 11.427048 12.670386 
" style="fill: none; stroke: #000000; stroke-width: 0.5; stroke-linejoin: miter; stroke-linecap: square"/>
   </g>
   <g id="patch_4">
    <path d="M 111.867048 95.830386 
L 111.867048 12.670386 
" style="fill: none; stroke: #000000; stroke-width: 0.5; stroke-linejoin: miter; stroke-linecap: square"/>
   </g>
   <g id="patch_5">
    <path d="M 11.427048 95.830386 
L 111.867048 95.830386 
" style="fill: none; stroke: #000000; stroke-width: 0.5; stroke-linejoin: miter; stroke-linecap: square"/>
   </g>
   <g id="patch_6">
    <path d="M 11.427048 12.670386 
L 111.867048 12.670386 
" style="fill: none; stroke: #000000; stroke-width: 0.5; stroke-linejoin: miter; stroke-linecap: square"/>
   </g>
   <g id="text_3">
    <!-- $\Vert f \Vert_\mathcal{H} = \;$1.33 -->
    <g transform="translate(39.597296 6.670386) scale(0.07 -0.07)">
     <defs>
      <path id="CMSY10-6b" d="M 1103 4582 
C 1103 4685 1103 4800 975 4800 
C 847 4800 847 4659 847 4563 
L 847 -1363 
C 847 -1466 847 -1600 975 -1600 
C 1103 -1600 1103 -1485 1103 -1382 
L 1103 4582 
z
M 2351 4563 
C 2351 4666 2351 4800 2223 4800 
C 2095 4800 2095 4685 2095 4582 
L 2095 -1382 
C 2095 -1485 2095 -1600 2223 -1600 
C 2351 -1600 2351 -1459 2351 -1363 
L 2351 4563 
z
" transform="scale(0.015625)"/>
      <path id="CMSY10-48" d="M 2118 2138 
C 2202 2437 2285 2761 2349 3067 
C 2426 3493 2470 3920 2470 3996 
C 2470 4352 2118 4352 2042 4352 
C 1555 4352 1120 4174 819 3971 
C 301 3621 134 3195 134 3164 
C 134 3120 179 3120 198 3120 
C 250 3120 550 3195 685 3437 
C 858 3759 1043 4000 1619 4000 
C 1882 4000 1926 3822 1926 3721 
C 1926 3714 1907 3415 1830 2977 
C 1798 2799 1779 2684 1645 2138 
L 1414 2138 
C 1235 2138 941 1933 941 1837 
C 941 1798 947 1792 1088 1792 
L 1549 1792 
C 1414 1343 1235 727 941 -56 
C 883 -204 883 -217 883 -224 
C 883 -268 934 -268 947 -268 
C 1037 -268 1235 -185 1363 -56 
C 1395 -18 1408 -5 1434 59 
C 1658 624 1850 1201 2016 1792 
L 3456 1792 
C 3526 1792 3648 1792 3750 1856 
C 3680 1586 3418 540 3418 33 
C 3418 -153 3526 -320 3802 -320 
C 4653 -320 5126 213 5126 418 
C 5126 456 5094 469 5062 469 
C 5011 469 4672 377 4576 123 
C 4550 71 4544 65 4422 45 
C 4352 32 4230 32 4224 32 
C 4109 32 3962 109 3962 307 
C 3962 383 4006 734 4026 874 
C 4134 1583 4448 2783 4998 4237 
C 5018 4282 5018 4295 5018 4307 
C 5018 4352 4979 4352 4954 4352 
C 4858 4352 4672 4264 4550 4155 
C 4544 4142 4506 4110 4480 4053 
C 4224 3429 4026 2787 3834 2138 
L 2118 2138 
z
" transform="scale(0.015625)"/>
      <path id="CMR17-3d" d="M 4115 2017 
C 4211 2017 4307 2017 4307 2125 
C 4307 2240 4198 2240 4090 2240 
L 512 2240 
C 403 2240 294 2240 294 2125 
C 294 2017 390 2017 486 2017 
L 4115 2017 
z
M 4090 896 
C 4198 896 4307 896 4307 1011 
C 4307 1119 4211 1119 4115 1119 
L 486 1119 
C 390 1119 294 1119 294 1011 
C 294 896 403 896 512 896 
L 4090 896 
z
" transform="scale(0.015625)"/>
      <path id="CMR17-31" d="M 1702 4058 
C 1702 4192 1696 4192 1606 4192 
C 1357 3916 979 3827 621 3827 
C 602 3827 570 3827 563 3808 
C 557 3795 557 3782 557 3648 
C 755 3648 1088 3686 1344 3839 
L 1344 461 
C 1344 236 1331 160 781 160 
L 589 160 
L 589 0 
C 896 0 1216 0 1523 0 
C 1830 0 2150 0 2458 0 
L 2458 160 
L 2266 160 
C 1715 160 1702 230 1702 458 
L 1702 4058 
z
" transform="scale(0.015625)"/>
      <path id="CMR17-2e" d="M 1062 261 
C 1062 420 934 522 800 522 
C 672 522 538 420 538 261 
C 538 102 666 0 800 0 
C 928 0 1062 102 1062 261 
z
" transform="scale(0.015625)"/>
      <path id="CMR17-33" d="M 1414 2157 
C 1984 2157 2234 1662 2234 1090 
C 2234 320 1824 25 1453 25 
C 1114 25 563 194 390 693 
C 422 680 454 680 486 680 
C 640 680 755 782 755 948 
C 755 1133 614 1216 486 1216 
C 378 1216 211 1165 211 926 
C 211 335 787 -128 1466 -128 
C 2176 -128 2720 430 2720 1085 
C 2720 1707 2208 2157 1600 2227 
C 2086 2328 2554 2756 2554 3329 
C 2554 3820 2048 4179 1472 4179 
C 890 4179 378 3829 378 3329 
C 378 3110 544 3072 627 3072 
C 762 3072 877 3155 877 3321 
C 877 3486 762 3569 627 3569 
C 602 3569 570 3569 544 3557 
C 730 3959 1235 4032 1459 4032 
C 1683 4032 2106 3925 2106 3320 
C 2106 3143 2080 2828 1862 2550 
C 1670 2304 1453 2304 1242 2284 
C 1210 2284 1062 2269 1037 2269 
C 992 2263 966 2257 966 2208 
C 966 2163 973 2157 1101 2157 
L 1414 2157 
z
" transform="scale(0.015625)"/>
     </defs>
     <use xlink:href="#CMSY10-6b" transform="scale(0.996264)"/>
     <use xlink:href="#CMMI12-66" transform="translate(49.813383 0) scale(0.996264)"/>
     <use xlink:href="#CMSY10-6b" transform="translate(108.533688 0) scale(0.996264)"/>
     <use xlink:href="#CMSY10-48" transform="translate(158.347071 -14.943915) scale(0.697382)"/>
     <use xlink:href="#CMR17-3d" transform="translate(246.087563 0) scale(0.996264)"/>
     <use xlink:href="#CMR17-31" transform="translate(345.47636 0) scale(0.996264)"/>
     <use xlink:href="#CMR17-2e" transform="translate(391.166837 0) scale(0.996264)"/>
     <use xlink:href="#CMR17-33" transform="translate(416.037896 0) scale(0.996264)"/>
     <use xlink:href="#CMR17-33" transform="translate(461.728373 0) scale(0.996264)"/>
    </g>
   </g>
  </g>
 </g>
 <defs>
  <clipPath id="p16cc2ca3f3">
   <rect x="11.427048" y="12.670386" width="100.44" height="83.16"/>
  </clipPath>
 </defs>
</svg>
