<?xml version="1.0" encoding="utf-8" standalone="no"?>
<!DOCTYPE svg PUBLIC "-//W3C//DTD SVG 1.1//EN"
  "http://www.w3.org/Graphics/SVG/1.1/DTD/svg11.dtd">
<svg xmlns:xlink="http://www.w3.org/1999/xlink" width="113.307048pt" height="107.627338pt" viewBox="0 0 113.307048 107.627338" xmlns="http://www.w3.org/2000/svg" version="1.1">
 <metadata>
  <rdf:RDF xmlns:dc="http://purl.org/dc/elements/1.1/" xmlns:cc="http://creativecommons.org/ns#" xmlns:rdf="http://www.w3.org/1999/02/22-rdf-syntax-ns#">
   <cc:Work>
    <dc:type rdf:resource="http://purl.org/dc/dcmitype/StillImage"/>
    <dc:date>2022-12-05T15:06:38.154352</dc:date>
    <dc:format>image/svg+xml</dc:format>
    <dc:creator>
     <cc:Agent>
      <dc:title>Matplotlib v3.6.2, https://matplotlib.org/</dc:title>
     </cc:Agent>
    </dc:creator>
   </cc:Work>
  </rdf:RDF>
 </metadata>
 <defs>
  <style type="text/css">*{stroke-linejoin: round; stroke-linecap: butt}</style>
 </defs>
 <g id="figure_1">
  <g id="patch_1">
   <path d="M 0 107.627338 
L 113.307048 107.627338 
L 113.307048 0 
L 0 0 
z
" style="fill: #ffffff"/>
  </g>
  <g id="axes_1">
   <g id="patch_2">
    <path d="M 11.427048 95.830386 
L 111.867048 95.830386 
L 111.867048 12.670386 
L 11.427048 12.670386 
z
" style="fill: #ffffff"/>
   </g>
   <g id="matplotlib.axis_1">
    <g id="text_1">
     <!-- $x$ -->
     <g transform="translate(59.388154 104.831324) scale(0.07 -0.07)">
      <defs>
       <path id="CMMI12-78" d="M 3034 2606 
C 2829 2567 2752 2414 2752 2293 
C 2752 2139 2874 2088 2963 2088 
C 3155 2088 3290 2254 3290 2427 
C 3290 2695 2982 2816 2714 2816 
C 2323 2816 2106 2433 2048 2312 
C 1901 2816 1504 2816 1389 2816 
C 736 2816 390 1980 390 1839 
C 390 1814 416 1782 461 1782 
C 512 1782 525 1820 538 1846 
C 755 2555 1184 2689 1370 2689 
C 1658 2689 1715 2420 1715 2267 
C 1715 2127 1677 1980 1600 1673 
L 1382 798 
C 1286 415 1101 64 762 64 
C 730 64 570 64 435 147 
C 666 192 717 383 717 460 
C 717 588 621 664 499 664 
C 346 664 179 530 179 326 
C 179 57 480 -64 755 -64 
C 1062 -64 1280 179 1414 441 
C 1517 64 1837 -64 2074 -64 
C 2726 -64 3072 773 3072 913 
C 3072 945 3046 971 3008 971 
C 2950 971 2944 939 2925 888 
C 2752 326 2381 64 2093 64 
C 1869 64 1747 230 1747 492 
C 1747 632 1773 734 1875 1156 
L 2099 2024 
C 2195 2408 2413 2689 2707 2689 
C 2720 2689 2899 2689 3034 2606 
z
" transform="scale(0.015625)"/>
      </defs>
      <use xlink:href="#CMMI12-78" transform="scale(0.996264)"/>
     </g>
    </g>
   </g>
   <g id="matplotlib.axis_2">
    <g id="text_2">
     <!-- $f(x)$ -->
     <g transform="translate(6.670386 61.955911) rotate(-90) scale(0.07 -0.07)">
      <defs>
       <path id="CMMI12-66" d="M 2854 2566 
C 2982 2566 3034 2566 3034 2688 
C 3034 2752 2982 2752 2867 2752 
L 2349 2752 
C 2470 3429 2560 3897 2611 4107 
C 2650 4265 2784 4416 2950 4416 
C 3085 4416 3219 4358 3283 4298 
C 3034 4272 2957 4082 2957 3969 
C 2957 3837 3053 3759 3174 3759 
C 3302 3759 3494 3870 3494 4119 
C 3494 4393 3226 4544 2944 4544 
C 2669 4544 2400 4334 2272 4078 
C 2157 3848 2093 3611 1946 2752 
L 1517 2752 
C 1395 2752 1331 2752 1331 2637 
C 1331 2566 1370 2566 1498 2566 
L 1907 2566 
C 1792 1976 1530 542 1382 -137 
C 1274 -689 1178 -1152 858 -1152 
C 838 -1152 653 -1152 538 -1031 
C 864 -1005 864 -726 864 -720 
C 864 -593 768 -517 646 -517 
C 518 -517 326 -625 326 -867 
C 326 -1140 608 -1280 858 -1280 
C 1510 -1280 1779 -118 1850 199 
C 1965 688 2278 2376 2310 2566 
L 2854 2566 
z
" transform="scale(0.015625)"/>
       <path id="CMR17-28" d="M 1958 -1561 
C 1958 -1555 1958 -1542 1939 -1523 
C 1645 -1224 858 -407 858 1581 
C 858 3569 1632 4379 1946 4697 
C 1946 4704 1958 4717 1958 4736 
C 1958 4755 1939 4768 1914 4768 
C 1843 4768 1299 4296 986 3594 
C 666 2887 576 2199 576 1588 
C 576 1128 621 351 1005 -471 
C 1312 -1135 1837 -1600 1914 -1600 
C 1946 -1600 1958 -1587 1958 -1561 
z
" transform="scale(0.015625)"/>
       <path id="CMR17-29" d="M 1683 1581 
C 1683 2040 1638 2817 1254 3639 
C 947 4303 422 4768 346 4768 
C 326 4768 301 4761 301 4729 
C 301 4717 307 4710 314 4697 
C 621 4378 1402 3568 1402 1584 
C 1402 -407 627 -1217 314 -1537 
C 307 -1549 301 -1556 301 -1568 
C 301 -1600 326 -1600 346 -1600 
C 416 -1600 960 -1128 1274 -426 
C 1594 281 1683 969 1683 1581 
z
" transform="scale(0.015625)"/>
      </defs>
      <use xlink:href="#CMMI12-66" transform="scale(0.996264)"/>
      <use xlink:href="#CMR17-28" transform="translate(58.720305 0) scale(0.996264)"/>
      <use xlink:href="#CMMI12-78" transform="translate(94.001073 0) scale(0.996264)"/>
      <use xlink:href="#CMR17-29" transform="translate(149.435132 0) scale(0.996264)"/>
     </g>
    </g>
   </g>
   <g id="line2d_1">
    <path d="M 3.912538 108.627338 
L 4.640562 91.324239 
L 5.364453 78.521698 
L 6.088345 69.286301 
L 6.812237 62.880536 
L 7.415481 59.232694 
L 8.018724 56.770026 
L 8.621967 55.20955 
L 9.22521 54.311591 
L 9.707805 53.935666 
L 10.311048 53.756676 
L 11.03494 53.800104 
L 14.533751 54.388 
L 16.222832 54.221519 
L 18.635805 53.998585 
L 20.204237 54.089848 
L 25.633426 54.649045 
L 27.322508 54.426381 
L 31.183264 53.811909 
L 32.631048 53.858779 
L 34.199481 54.132729 
L 38.422183 55.009306 
L 39.749318 54.964809 
L 41.197102 54.668999 
L 43.972021 53.765675 
L 45.419805 53.462766 
L 46.505643 53.451248 
L 47.591481 53.666039 
L 48.797967 54.158497 
L 50.487048 55.132974 
L 52.176129 56.040018 
L 53.141318 56.314313 
L 53.985859 56.305684 
L 54.709751 56.066684 
L 55.433643 55.584621 
L 56.157535 54.842934 
L 57.002075 53.644564 
L 57.967264 51.857245 
L 59.173751 49.092 
L 60.983481 44.269127 
L 63.275805 38.257787 
L 64.482291 35.68671 
L 65.447481 34.091174 
L 66.292021 33.07146 
L 67.136562 32.406858 
L 67.860453 32.104704 
L 68.584345 32.023198 
L 69.428886 32.160488 
L 70.514724 32.601833 
L 74.496129 34.517375 
L 75.581967 34.659295 
L 76.667805 34.57341 
L 77.99494 34.219613 
L 82.338291 32.814764 
L 83.665426 32.752468 
L 85.11321 32.933305 
L 87.767481 33.576001 
L 89.57721 33.873854 
L 91.024994 33.889701 
L 92.714075 33.676231 
L 96.454183 33.116092 
L 98.022616 33.16591 
L 100.194291 33.499906 
L 102.365967 33.769201 
L 103.813751 33.715181 
L 105.502832 33.412823 
L 107.553859 33.065081 
L 108.639697 33.109361 
L 109.725535 33.391646 
L 112.138508 34.182791 
L 112.621102 34.068904 
L 113.103697 33.711137 
L 113.586291 33.012657 
L 114.068886 31.858879 
L 114.307048 31.081116 
L 114.307048 31.081116 
" clip-path="url(#p2f5b44cf6a)" style="fill: none; stroke: #d62728; stroke-linecap: square"/>
   </g>
   <g id="patch_3">
    <path d="M 11.427048 95.830386 
L 11.427048 12.670386 
" style="fill: none; stroke: #000000; stroke-width: 0.5; stroke-linejoin: miter; stroke-linecap: square"/>
   </g>
   <g id="patch_4">
    <path d="M 111.867048 95.830386 
L 111.867048 12.670386 
" style="fill: none; stroke: #000000; stroke-width: 0.5; stroke-linejoin: miter; stroke-linecap: square"/>
   </g>
   <g id="patch_5">
    <path d="M 11.427048 95.830386 
L 111.867048 95.830386 
" style="fill: none; stroke: #000000; stroke-width: 0.5; stroke-linejoin: miter; stroke-linecap: square"/>
   </g>
   <g id="patch_6">
    <path d="M 11.427048 12.670386 
L 111.867048 12.670386 
" style="fill: none; stroke: #000000; stroke-width: 0.5; stroke-linejoin: miter; stroke-linecap: square"/>
   </g>
   <g id="text_3">
    <!-- $\Vert f \Vert_\mathcal{H} = \;$1958.73 -->
    <g transform="translate(33.64044 6.670386) scale(0.07 -0.07)">
     <defs>
      <path id="CMSY10-6b" d="M 1103 4582 
C 1103 4685 1103 4800 975 4800 
C 847 4800 847 4659 847 4563 
L 847 -1363 
C 847 -1466 847 -1600 975 -1600 
C 1103 -1600 1103 -1485 1103 -1382 
L 1103 4582 
z
M 2351 4563 
C 2351 4666 2351 4800 2223 4800 
C 2095 4800 2095 4685 2095 4582 
L 2095 -1382 
C 2095 -1485 2095 -1600 2223 -1600 
C 2351 -1600 2351 -1459 2351 -1363 
L 2351 4563 
z
" transform="scale(0.015625)"/>
      <path id="CMSY10-48" d="M 2118 2138 
C 2202 2437 2285 2761 2349 3067 
C 2426 3493 2470 3920 2470 3996 
C 2470 4352 2118 4352 2042 4352 
C 1555 4352 1120 4174 819 3971 
C 301 3621 134 3195 134 3164 
C 134 3120 179 3120 198 3120 
C 250 3120 550 3195 685 3437 
C 858 3759 1043 4000 1619 4000 
C 1882 4000 1926 3822 1926 3721 
C 1926 3714 1907 3415 1830 2977 
C 1798 2799 1779 2684 1645 2138 
L 1414 2138 
C 1235 2138 941 1933 941 1837 
C 941 1798 947 1792 1088 1792 
L 1549 1792 
C 1414 1343 1235 727 941 -56 
C 883 -204 883 -217 883 -224 
C 883 -268 934 -268 947 -268 
C 1037 -268 1235 -185 1363 -56 
C 1395 -18 1408 -5 1434 59 
C 1658 624 1850 1201 2016 1792 
L 3456 1792 
C 3526 1792 3648 1792 3750 1856 
C 3680 1586 3418 540 3418 33 
C 3418 -153 3526 -320 3802 -320 
C 4653 -320 5126 213 5126 418 
C 5126 456 5094 469 5062 469 
C 5011 469 4672 377 4576 123 
C 4550 71 4544 65 4422 45 
C 4352 32 4230 32 4224 32 
C 4109 32 3962 109 3962 307 
C 3962 383 4006 734 4026 874 
C 4134 1583 4448 2783 4998 4237 
C 5018 4282 5018 4295 5018 4307 
C 5018 4352 4979 4352 4954 4352 
C 4858 4352 4672 4264 4550 4155 
C 4544 4142 4506 4110 4480 4053 
C 4224 3429 4026 2787 3834 2138 
L 2118 2138 
z
" transform="scale(0.015625)"/>
      <path id="CMR17-3d" d="M 4115 2017 
C 4211 2017 4307 2017 4307 2125 
C 4307 2240 4198 2240 4090 2240 
L 512 2240 
C 403 2240 294 2240 294 2125 
C 294 2017 390 2017 486 2017 
L 4115 2017 
z
M 4090 896 
C 4198 896 4307 896 4307 1011 
C 4307 1119 4211 1119 4115 1119 
L 486 1119 
C 390 1119 294 1119 294 1011 
C 294 896 403 896 512 896 
L 4090 896 
z
" transform="scale(0.015625)"/>
      <path id="CMR17-31" d="M 1702 4058 
C 1702 4192 1696 4192 1606 4192 
C 1357 3916 979 3827 621 3827 
C 602 3827 570 3827 563 3808 
C 557 3795 557 3782 557 3648 
C 755 3648 1088 3686 1344 3839 
L 1344 461 
C 1344 236 1331 160 781 160 
L 589 160 
L 589 0 
C 896 0 1216 0 1523 0 
C 1830 0 2150 0 2458 0 
L 2458 160 
L 2266 160 
C 1715 160 1702 230 1702 458 
L 1702 4058 
z
" transform="scale(0.015625)"/>
      <path id="CMR17-39" d="M 2253 1864 
C 2253 464 1670 31 1190 31 
C 1043 31 685 31 538 294 
C 704 268 826 357 826 518 
C 826 692 685 749 595 749 
C 538 749 365 723 365 506 
C 365 71 742 -128 1203 -128 
C 1939 -128 2688 674 2688 2073 
C 2688 3817 1971 4179 1485 4179 
C 851 4179 243 3628 243 2778 
C 243 1991 762 1408 1414 1408 
C 1952 1408 2189 1903 2253 2112 
L 2253 1864 
z
M 1427 1510 
C 1254 1510 1011 1542 813 1922 
C 678 2169 678 2461 678 2771 
C 678 3146 678 3405 858 3684 
C 947 3817 1114 4032 1485 4032 
C 2240 4032 2240 2885 2240 2632 
C 2240 2182 2035 1510 1427 1510 
z
" transform="scale(0.015625)"/>
      <path id="CMR17-35" d="M 730 3692 
C 794 3666 1056 3584 1325 3584 
C 1920 3584 2246 3911 2432 4100 
C 2432 4157 2432 4192 2394 4192 
C 2387 4192 2374 4192 2323 4163 
C 2099 4058 1837 3973 1517 3973 
C 1325 3973 1037 3999 723 4139 
C 653 4171 640 4171 634 4171 
C 602 4171 595 4164 595 4037 
L 595 2203 
C 595 2089 595 2057 659 2057 
C 691 2057 704 2070 736 2114 
C 941 2401 1222 2522 1542 2522 
C 1766 2522 2246 2382 2246 1289 
C 2246 1085 2246 715 2054 421 
C 1894 159 1645 25 1370 25 
C 947 25 518 320 403 814 
C 429 807 480 795 506 795 
C 589 795 749 840 749 1038 
C 749 1210 627 1280 506 1280 
C 358 1280 262 1190 262 1011 
C 262 454 704 -128 1382 -128 
C 2042 -128 2669 440 2669 1264 
C 2669 2030 2170 2624 1549 2624 
C 1222 2624 947 2503 730 2274 
L 730 3692 
z
" transform="scale(0.015625)"/>
      <path id="CMR17-38" d="M 1741 2264 
C 2144 2467 2554 2773 2554 3263 
C 2554 3841 1990 4179 1472 4179 
C 890 4179 378 3759 378 3180 
C 378 3021 416 2747 666 2505 
C 730 2442 998 2251 1171 2130 
C 883 1983 211 1634 211 934 
C 211 279 838 -128 1459 -128 
C 2144 -128 2720 362 2720 1010 
C 2720 1590 2330 1857 2074 2029 
L 1741 2264 
z
M 902 2822 
C 851 2854 595 3051 595 3351 
C 595 3739 998 4032 1459 4032 
C 1965 4032 2336 3676 2336 3262 
C 2336 2669 1670 2331 1638 2331 
C 1632 2331 1626 2331 1574 2370 
L 902 2822 
z
M 2080 1519 
C 2176 1449 2483 1240 2483 851 
C 2483 381 2010 25 1472 25 
C 890 25 448 438 448 940 
C 448 1443 838 1862 1280 2060 
L 2080 1519 
z
" transform="scale(0.015625)"/>
      <path id="CMR17-2e" d="M 1062 261 
C 1062 420 934 522 800 522 
C 672 522 538 420 538 261 
C 538 102 666 0 800 0 
C 928 0 1062 102 1062 261 
z
" transform="scale(0.015625)"/>
      <path id="CMR17-37" d="M 2886 3941 
L 2886 4081 
L 1382 4081 
C 634 4081 621 4165 595 4288 
L 480 4288 
L 294 3094 
L 410 3094 
C 429 3215 474 3540 550 3661 
C 589 3712 1062 3712 1171 3712 
L 2579 3712 
L 1869 2661 
C 1395 1954 1069 999 1069 165 
C 1069 89 1069 -128 1299 -128 
C 1530 -128 1530 89 1530 171 
L 1530 465 
C 1530 1508 1709 2196 2003 2636 
L 2886 3941 
z
" transform="scale(0.015625)"/>
      <path id="CMR17-33" d="M 1414 2157 
C 1984 2157 2234 1662 2234 1090 
C 2234 320 1824 25 1453 25 
C 1114 25 563 194 390 693 
C 422 680 454 680 486 680 
C 640 680 755 782 755 948 
C 755 1133 614 1216 486 1216 
C 378 1216 211 1165 211 926 
C 211 335 787 -128 1466 -128 
C 2176 -128 2720 430 2720 1085 
C 2720 1707 2208 2157 1600 2227 
C 2086 2328 2554 2756 2554 3329 
C 2554 3820 2048 4179 1472 4179 
C 890 4179 378 3829 378 3329 
C 378 3110 544 3072 627 3072 
C 762 3072 877 3155 877 3321 
C 877 3486 762 3569 627 3569 
C 602 3569 570 3569 544 3557 
C 730 3959 1235 4032 1459 4032 
C 1683 4032 2106 3925 2106 3320 
C 2106 3143 2080 2828 1862 2550 
C 1670 2304 1453 2304 1242 2284 
C 1210 2284 1062 2269 1037 2269 
C 992 2263 966 2257 966 2208 
C 966 2163 973 2157 1101 2157 
L 1414 2157 
z
" transform="scale(0.015625)"/>
     </defs>
     <use xlink:href="#CMSY10-6b" transform="scale(0.996264)"/>
     <use xlink:href="#CMMI12-66" transform="translate(49.813383 0) scale(0.996264)"/>
     <use xlink:href="#CMSY10-6b" transform="translate(108.533688 0) scale(0.996264)"/>
     <use xlink:href="#CMSY10-48" transform="translate(158.347071 -14.943915) scale(0.697382)"/>
     <use xlink:href="#CMR17-3d" transform="translate(246.087563 0) scale(0.996264)"/>
     <use xlink:href="#CMR17-31" transform="translate(345.47636 0) scale(0.996264)"/>
     <use xlink:href="#CMR17-39" transform="translate(391.166837 0) scale(0.996264)"/>
     <use xlink:href="#CMR17-35" transform="translate(436.857314 0) scale(0.996264)"/>
     <use xlink:href="#CMR17-38" transform="translate(482.547791 0) scale(0.996264)"/>
     <use xlink:href="#CMR17-2e" transform="translate(528.238268 0) scale(0.996264)"/>
     <use xlink:href="#CMR17-37" transform="translate(553.109327 0) scale(0.996264)"/>
     <use xlink:href="#CMR17-33" transform="translate(598.799804 0) scale(0.996264)"/>
    </g>
   </g>
  </g>
 </g>
 <defs>
  <clipPath id="p2f5b44cf6a">
   <rect x="11.427048" y="12.670386" width="100.44" height="83.16"/>
  </clipPath>
 </defs>
</svg>
